<?xml version="1.0" standalone="no"?>
<!DOCTYPE svg PUBLIC "-//W3C//DTD SVG 20010904//EN"
 "http://www.w3.org/TR/2001/REC-SVG-20010904/DTD/svg10.dtd">
<svg version="1.0" xmlns="http://www.w3.org/2000/svg"
 width="50.000000pt" height="50.000000pt" viewBox="0 0 50.000000 50.000000"
 preserveAspectRatio="xMidYMid meet">

<g transform="translate(0.000000,50.000000) scale(0.100000,-0.100000)"
fill="#000000" stroke="none">
<path d="M273 426 c-30 -62 -26 -100 12 -118 34 -15 72 3 81 38 7 29 -37 134
-56 134 -6 0 -22 -24 -37 -54z"/>
<path d="M53 367 c-18 -6 -33 -15 -33 -19 0 -11 31 -10 49 1 7 5 25 4 42 -2
21 -8 37 -8 58 -1 18 7 34 8 45 2 25 -14 33 0 10 17 -10 8 -26 12 -34 8 -30
-12 -78 -15 -84 -4 -8 12 -8 12 -53 -2z"/>
<path d="M392 364 c-15 -12 -15 -13 8 -13 14 0 37 -3 53 -7 40 -9 33 9 -8 22
-27 9 -39 8 -53 -2z"/>
<path d="M53 256 c-40 -12 -44 -31 -6 -22 16 4 34 6 41 6 6 -1 30 -2 52 -2 22
0 47 0 55 0 8 0 33 0 55 0 22 0 47 0 55 0 8 0 33 0 55 0 22 0 46 1 53 2 6 0
24 -2 40 -6 17 -4 27 -2 27 5 0 6 -8 11 -18 11 -10 0 -23 5 -29 11 -8 8 -17 8
-31 0 -11 -6 -31 -11 -44 -11 -13 0 -29 5 -35 11 -8 8 -17 8 -31 0 -26 -14
-65 -14 -78 -1 -6 6 -21 6 -42 -2 -22 -9 -40 -9 -59 -3 -18 7 -39 7 -60 1z"/>
<path d="M153 146 c-30 -62 -26 -100 12 -118 34 -15 72 3 81 38 7 29 -37 134
-56 134 -6 0 -22 -24 -37 -54z"/>
<path d="M53 147 c-18 -6 -33 -15 -33 -19 0 -11 32 -10 49 1 9 6 22 6 32 1 23
-13 32 0 11 16 -9 7 -19 13 -22 12 -3 0 -20 -6 -37 -11z"/>
<path d="M276 145 c-17 -8 -24 -15 -17 -19 6 -4 18 -3 27 2 11 6 27 5 45 -2
21 -7 37 -7 58 1 17 6 35 7 42 2 19 -12 49 -11 49 1 0 6 -8 10 -18 10 -10 0
-22 4 -28 10 -6 6 -21 6 -42 -2 -23 -9 -40 -9 -60 -2 -19 7 -35 7 -56 -1z"/>
</g>
</svg>
