<?xml version="1.0" standalone="no"?>
<!DOCTYPE svg PUBLIC "-//W3C//DTD SVG 20010904//EN"
 "http://www.w3.org/TR/2001/REC-SVG-20010904/DTD/svg10.dtd">
<svg version="1.0" xmlns="http://www.w3.org/2000/svg"
 width="50.000000pt" height="50.000000pt" viewBox="0 0 50.000000 50.000000"
 preserveAspectRatio="xMidYMid meet">

<g transform="translate(0.000000,50.000000) scale(0.100000,-0.100000)"
fill="#000000" stroke="none">
<path d="M205 445 c-23 -22 -25 -31 -25 -128 0 -75 -4 -108 -15 -123 -24 -31
-19 -97 9 -127 66 -71 176 -28 176 67 0 23 -7 50 -15 60 -11 15 -15 48 -15
123 0 97 -2 106 -25 128 -13 14 -33 25 -45 25 -11 0 -32 -11 -45 -25z m69 -21
c13 -12 16 -39 16 -123 0 -84 3 -111 15 -121 25 -21 19 -76 -11 -99 -34 -26
-54 -26 -88 0 -30 23 -36 78 -11 99 12 10 15 37 15 121 0 84 3 111 16 123 8 9
19 16 24 16 5 0 16 -7 24 -16z"/>
<path d="M237 324 c-4 -4 -7 -38 -7 -74 0 -48 -4 -71 -15 -80 -23 -19 -18 -57
10 -76 23 -15 27 -15 50 0 28 18 33 57 10 76 -9 8 -15 36 -17 83 -3 64 -13 88
-31 71z"/>
</g>
</svg>
