<?xml version="1.0" standalone="no"?>
<!DOCTYPE svg PUBLIC "-//W3C//DTD SVG 20010904//EN"
 "http://www.w3.org/TR/2001/REC-SVG-20010904/DTD/svg10.dtd">
<svg version="1.0" xmlns="http://www.w3.org/2000/svg"
 width="50.000000pt" height="50.000000pt" viewBox="0 0 50.000000 50.000000"
 preserveAspectRatio="xMidYMid meet">

<g transform="translate(0.000000,50.000000) scale(0.100000,-0.100000)"
fill="#000000" stroke="none">
<path d="M4 446 c-10 -26 4 -48 28 -44 17 2 23 10 23 28 0 18 -6 26 -23 28
-13 2 -25 -3 -28 -12z"/>
<path d="M70 349 c0 -89 0 -90 23 -82 22 8 44 8 197 3 69 -3 96 1 142 19 32
12 60 27 64 32 3 5 0 25 -6 45 -10 30 -16 35 -34 30 -75 -21 -131 -18 -214 13
-47 17 -103 31 -128 31 l-44 0 0 -91z m176 -8 c-3 -25 -8 -46 -9 -48 -2 -2
-18 0 -34 3 -29 6 -31 8 -26 48 7 66 8 66 43 53 31 -12 32 -14 26 -56z m165
-7 c11 -32 11 -32 -29 -40 -31 -6 -32 -6 -32 30 0 32 3 36 25 36 18 0 28 -7
36 -26z"/>
<path d="M20 215 c0 -103 4 -165 10 -165 6 0 10 62 10 165 0 103 -4 165 -10
165 -6 0 -10 -62 -10 -165z"/>
</g>
</svg>
